# xmcd CD database file
#
# Track frame offsets:
#	4005
#	32463
#	62451
#	88963
#	108730
#	138144
#	160794
#	180726
#	205146
#	240584
#	265866
#	288226
#	312195
#	331297
#
# Disc length: 4769 seconds
#
# Revision: 0
# Processed by: cddbd v1.5.1PL0 Copyright (c) Steve Scherf et al.
# Submitted via: CDex 1.51
#
DISCID=c3126c0e
DTITLE=Various Artist - Der Frankfurt Sound - from the sixties up to now
DYEAR=2005
DGENRE=Jazz
TTITLE0=Family of Percussion and Archie Shepp - Here come the family
TTITLE1=Volker Kriegel - The e again
TTITLE2=Albert Mangelsdorff Quintett - Club trois
TTITLE3=hr Big Band - Michelangelo
TTITLE4=Vitold Rek and Karl Berger - Gabissimo
TTITLE5=Fifty Fingers - Check it
TTITLE6=Frankfurt Jazz Big Band - Que pasó
TTITLE7=Christopher Dell and John Schröder - Achtelberger
TTITLE8=hr Jazzensemble - Perpetual Questions
TTITLE9=Ralf Hübner - Falkland
TTITLE10=Heinz Sauer - Kieser´s exchange
TTITLE11=European Groove Orchestra - Euro Funken Beatz
TTITLE12=Fritz Hartschuh Quartett feat. Emil Mangelsdorf - No problem
TTITLE13=Alfred Harth - Sejongno Boulevard
EXTD=YEAR: 2005
EXTT0=
EXTT1=
EXTT2=
EXTT3=
EXTT4=
EXTT5=
EXTT6=
EXTT7=
EXTT8=
EXTT9=
EXTT10=
EXTT11=
EXTT12=
EXTT13=
PLAYORDER=
